<?xml version="1.0" encoding="UTF-8"?>
<svg version="1.1" xmlns="http://www.w3.org/2000/svg" width="434" height="437">
<path d="M0 0 C143.22 0 286.44 0 434 0 C434 144.21 434 288.42 434 437 C290.78 437 147.56 437 0 437 C0 292.79 0 148.58 0 0 Z " fill="#FEFEFE" transform="translate(0,0)"/>
<path d="M0 0 C0.74620605 0.18191895 1.49241211 0.36383789 2.26123047 0.55126953 C12.90789645 3.26817243 22.3387426 7.88017623 32 13 C32.99386719 13.48082031 33.98773438 13.96164063 35.01171875 14.45703125 C38.55510983 16.28662534 41.85320807 18.38115426 45.1875 20.5625 C45.80302734 20.96146484 46.41855469 21.36042969 47.05273438 21.77148438 C49.71300758 23.49792386 52.36124434 25.24082956 55 27 C55 27.66 55 28.32 55 29 C55.70125 29.226875 56.4025 29.45375 57.125 29.6875 C62.58471196 32.1799772 66.96999891 36.61441058 71 41 C71 41.66 71 42.32 71 43 C71.66 43 72.32 43 73 43 C78 48.47619048 78 48.47619048 78 51 C78.99 51.33 79.98 51.66 81 52 C82.38442 53.96498322 83.71203834 55.97048465 85 58 C85.61875 58.721875 86.2375 59.44375 86.875 60.1875 C90.13093987 64.49683219 92.50812278 69.2184504 95 74 C95.85658203 75.61648437 95.85658203 75.61648437 96.73046875 77.265625 C104.16529539 91.64290565 109.03568493 106.08605 112 122 C112.17805176 122.92014893 112.35610352 123.84029785 112.53955078 124.78833008 C117.3165091 150.98902864 113.435751 178.29595961 104 203 C103.69578125 203.88816406 103.3915625 204.77632812 103.078125 205.69140625 C98.64079022 218.06152349 91.32086731 229.64740777 83.5 240.125 C82.98373047 240.81803223 82.46746094 241.51106445 81.93554688 242.22509766 C80.67833218 243.86023008 79.34581491 245.43698078 78 247 C77.34 247 76.68 247 76 247 C75.690625 247.79664063 75.690625 247.79664063 75.375 248.609375 C73.42038808 252.00773436 70.77876283 254.51055928 68 257.25 C67.4534375 257.80429687 66.906875 258.35859375 66.34375 258.9296875 C62.2533867 263 62.2533867 263 60 263 C60 263.66 60 264.32 60 265 C58.26451831 266.44526736 56.46024037 267.8087222 54.625 269.125 C53.62726563 269.84945313 52.62953125 270.57390625 51.6015625 271.3203125 C49 273 49 273 47 273 C47 273.66 47 274.32 47 275 C45.02 275.66 43.04 276.32 41 277 C41 277.66 41 278.32 41 279 C37.9802079 280.43969458 34.95897965 281.87635087 31.9375 283.3125 C31.08994141 283.71662109 30.24238281 284.12074219 29.36914062 284.53710938 C-1.49812517 299.19608116 -37.37844941 305.65166015 -71 297 C-72.81073843 296.65722647 -74.62311616 296.32292201 -76.4375 296 C-83.80559879 294.48734396 -90.6921298 291.7853356 -97.6875 289.0625 C-98.6324231 288.70140137 -98.6324231 288.70140137 -99.59643555 288.33300781 C-103.78829131 286.66930119 -107.30147144 284.55973059 -111 282 C-112.44185712 281.21879313 -113.89819523 280.46294023 -115.375 279.75 C-116.40753906 279.24726562 -116.40753906 279.24726562 -117.4609375 278.734375 C-117.96882813 278.49203125 -118.47671875 278.2496875 -119 278 C-119 277.34 -119 276.68 -119 276 C-119.94875 275.690625 -120.8975 275.38125 -121.875 275.0625 C-125 274 -125 274 -127 273 C-127 272.34 -127 271.68 -127 271 C-127.7425 270.731875 -128.485 270.46375 -129.25 270.1875 C-131.89061949 269.04723249 -133.85552844 267.90619694 -136 266 C-136 265.34 -136 264.68 -136 264 C-136.58265625 263.74186523 -137.1653125 263.48373047 -137.765625 263.21777344 C-140.18313273 261.90018946 -141.80249989 260.45608353 -143.75 258.515625 C-144.4409375 257.82726562 -145.131875 257.13890625 -145.84375 256.4296875 C-146.5553125 255.71039063 -147.266875 254.99109375 -148 254.25 C-148.7115625 253.54617188 -149.423125 252.84234375 -150.15625 252.1171875 C-153.9679914 248.29122319 -157.1638021 244.59193946 -160 240 C-160.7425 239.0925 -161.485 238.185 -162.25 237.25 C-164 235 -164 235 -164 233 C-164.66 233 -165.32 233 -166 233 C-166.37125 232.195625 -166.7425 231.39125 -167.125 230.5625 C-168.50417673 227.77146463 -170.15050892 225.2970278 -171.9375 222.75 C-175.112361 218.0462133 -177.06186336 213.31035241 -179 208 C-179.48835157 206.75421209 -179.97943124 205.5094915 -180.47265625 204.265625 C-183.73741717 195.95385656 -186.35488521 187.80332262 -188 179 C-188.13535156 178.31631348 -188.27070313 177.63262695 -188.41015625 176.92822266 C-191.90797677 159.00977046 -192.25341845 140.99875047 -189 123 C-188.8546582 122.1848291 -188.70931641 121.3696582 -188.55957031 120.52978516 C-184.46607775 98.48130276 -176.15737263 73.15415226 -161 56 C-160.34 56 -159.68 56 -159 56 C-158.73703125 55.43152344 -158.4740625 54.86304688 -158.203125 54.27734375 C-154.73352948 47.70989509 -149.79399079 42.53442757 -144 38 C-143.113125 37.0925 -142.22625 36.185 -141.3125 35.25 C-139 33 -139 33 -136 32 C-136 31.34 -136 30.68 -136 30 C-132.52460233 27.08559172 -128.72429983 24.58494329 -125 22 C-123.92363281 21.23945312 -122.84726563 20.47890625 -121.73828125 19.6953125 C-120.16626953 18.60863281 -120.16626953 18.60863281 -118.5625 17.5 C-117.59441406 16.8296875 -116.62632812 16.159375 -115.62890625 15.46875 C-113 14 -113 14 -109 14 C-109 13.34 -109 12.68 -109 12 C-106.36 11.34 -103.72 10.68 -101 10 C-101 9.34 -101 8.68 -101 8 C-91.77123582 4.48024852 -82.55524601 1.46734433 -72.9375 -0.8125 C-72.07036377 -1.0189917 -71.20322754 -1.2254834 -70.30981445 -1.43823242 C-47.72422955 -6.62248747 -22.4251105 -5.4857004 0 0 Z " fill="#E3E0DF" transform="translate(255,69)"/>
<path d="M0 0 C0 0.66 0 1.32 0 2 C0.680625 2.20625 1.36125 2.4125 2.0625 2.625 C9.59566141 6.15116066 16.85670053 13.52702719 20.4375 21 C20.623125 21.66 20.80875 22.32 21 23 C21.66 23 22.32 23 23 23 C36.7108231 40.22271814 40.91075243 63.59731799 40 85 C39.9690625 85.96421875 39.938125 86.9284375 39.90625 87.921875 C38.70269941 108.26188 29.14060814 125.20482105 17 141 C16.34773437 141.86496094 15.69546875 142.72992188 15.0234375 143.62109375 C6.13777407 154.06775211 -6.50148319 161.74361443 -19 167 C-20.093125 167.53625 -21.18625 168.0725 -22.3125 168.625 C-43.05142427 176.3581582 -69.91285924 177.19613094 -90.3984375 168.1640625 C-94.36557902 166.28206634 -98.19090379 164.18070483 -102 162 C-102.94488281 161.48179687 -103.88976562 160.96359375 -104.86328125 160.4296875 C-110.99448438 156.93976473 -116.86361329 152.85224617 -122 148 C-122 147.34 -122 146.68 -122 146 C-122.66 146 -123.32 146 -124 146 C-142.14925365 127.21062744 -151.64129426 102.00930574 -151.34741211 76.06445312 C-150.85454834 59.99351581 -146.16972174 45.33944349 -139 31 C-138.34 31 -137.68 31 -137 31 C-136.74863281 30.113125 -136.49726563 29.22625 -136.23828125 28.3125 C-134.95941111 24.89142153 -133.52073505 22.78382155 -131.1875 20 C-130.10662109 18.70449219 -130.10662109 18.70449219 -129.00390625 17.3828125 C-128.34261719 16.59648437 -127.68132812 15.81015625 -127 15 C-126.21625 13.96875 -125.4325 12.9375 -124.625 11.875 C-120.85271282 7.74344737 -116.58977282 4.20065573 -112 1 C-111.34 1 -110.68 1 -110 1 C-110 0.34 -110 -0.32 -110 -1 C-72.93703939 -21.35991969 -36.50832286 -22.02013166 0 0 Z " fill="#FEFEFD" transform="translate(272,139)"/>
<path d="M0 0 C4.22270982 2.27376683 7.34250338 4.67204337 10.43359375 8.34375 C14.02420038 11.41145275 16.024445 11.34682444 20.6875 11.375 C27.52492277 11.44399518 31.71199589 12.566136 36.9375 17.0625 C41.42908049 22.28244489 42.52795404 26.35972628 42.5 33.1875 C42.63754523 38.34811506 42.63754523 38.34811506 44.72265625 43 C45.9357312 44.11262925 47.18228581 45.1899601 48.4609375 46.2265625 C52.19984075 49.41034474 53.93788115 53.46231072 54.59375 58.26953125 C54.78307604 63.5312174 54.27080135 67.31319802 51.25 71.75 C50.28707031 72.67619141 50.28707031 72.67619141 49.3046875 73.62109375 C43.38878239 79.39917311 42.5882818 83.25617816 42.4296875 91.44140625 C42.0831282 97.82261767 39.48545587 101.86134833 34.875 106.125 C30.08492574 110.1886175 25.11471513 110.88027394 19 110.8125 C12.16969061 111.20191331 9.11530691 113.69245877 4.56640625 118.62109375 C0.23705112 122.60001204 -4.77138198 123.21518132 -10.44921875 123.0625 C-17.43159027 122.11413035 -22.26669294 117.90580312 -26.75 112.75 C-26.75 112.09 -26.75 111.43 -26.75 110.75 C-27.97976562 110.72421875 -29.20953125 110.6984375 -30.4765625 110.671875 C-32.10940932 110.61556994 -33.74222045 110.55822315 -35.375 110.5 C-36.58736328 110.47873047 -36.58736328 110.47873047 -37.82421875 110.45703125 C-44.81742602 110.17275453 -48.56089433 107.98885807 -53.5 102.9375 C-57.47345977 97.30843199 -57.75782344 92.8378314 -58 86.125 C-58.23339558 80.93734527 -58.23339558 80.93734527 -61.5 77 C-62.5725 76.2575 -63.645 75.515 -64.75 74.75 C-68.96533191 69.44261319 -70.63167703 64.21675936 -70.30078125 57.45703125 C-69.04903894 51.30485095 -65.27137211 46.90548594 -60.4375 43.125 C-57.58879504 40.51245711 -57.37369286 38.05650609 -57.13012695 34.27587891 C-57.06484494 32.32024648 -57.05674684 30.36296263 -57.05078125 28.40625 C-56.65667464 23.61555152 -55.29636354 20.39279601 -51.99609375 16.88671875 C-51.39925781 16.40847656 -50.80242187 15.93023437 -50.1875 15.4375 C-49.58808594 14.94636719 -48.98867187 14.45523438 -48.37109375 13.94921875 C-45.2753864 11.65914127 -43.04314745 11.69372718 -39.24047852 11.66308594 C-32.55329012 11.67089143 -32.55329012 11.67089143 -26.453125 9.3046875 C-25.36448684 8.10718553 -24.31479777 6.87302446 -23.30859375 5.60546875 C-17.14749424 -1.72917352 -8.65551776 -2.88517259 0 0 Z " fill="#373936" transform="translate(224.75,155.25)"/>
<path d="M0 0 C3.12700554 1.71985305 5.2065744 3.92220475 7.55859375 6.5859375 C12.5040161 11.14328848 17.33983682 11.81422763 23.75 11.9375 C31.24380165 12.11880165 31.24380165 12.11880165 33.5 14.375 C33.60828588 16.17629399 33.70562105 17.9795001 33.72558594 19.78393555 C33.81678804 27.82887271 34.81998229 33.28829845 40.5 39.375 C41.47028162 40.30106626 42.44842136 41.21903721 43.4375 42.125 C44.118125 42.8675 44.79875 43.61 45.5 44.375 C45.26780597 48.75040624 43.53232688 50.84952449 40.5625 53.9375 C34.73103171 60.0441374 34.18181312 64.45738756 33.93359375 72.70703125 C33.70117942 78.17382058 33.70117942 78.17382058 31.5 80.375 C29.69870601 80.48328588 27.8954999 80.58062105 26.09106445 80.60058594 C18.04612729 80.69178804 12.58670155 81.69498229 6.5 87.375 C5.57393374 88.34528162 4.65596279 89.32342136 3.75 90.3125 C1.5 92.375 1.5 92.375 -0.875 92.625 C-3.57443992 91.33955242 -4.83536852 90.13979195 -6.875 88 C-13.57181082 81.04671557 -20.05805743 80.99948827 -29.26953125 80.78125 C-30.33558594 80.6471875 -31.40164062 80.513125 -32.5 80.375 C-34.89203156 76.78695266 -34.75520411 74.94946927 -34.875 70.6875 C-35.39925271 62.19460614 -37.11372482 57.47797262 -43.3125 51.6875 C-46.45399382 48.68170786 -46.45399382 48.68170786 -46.875 45.875 C-45.498172 43.37167637 -44.18204915 42.00966405 -42.125 40.0625 C-35.2781146 33.49622466 -35.13419028 26.56693095 -34.80859375 17.3515625 C-34.5 14.375 -34.5 14.375 -32.5 12.375 C-30.13037337 12.17222022 -27.7524933 12.06144615 -25.375 12 C-16.71225209 11.58328488 -11.74101128 9.89551525 -5.8125 3.5625 C-2.80670786 0.42100618 -2.80670786 0.42100618 0 0 Z " fill="#FDFDFD" transform="translate(217.5,169.625)"/>
<path d="M0 0 C2.7319141 1.66815994 4.86547921 3.62516892 7 6 C6 9 6 9 3.9375 10.1875 C3.298125 10.455625 2.65875 10.72375 2 11 C1.62875 10.525625 1.2575 10.05125 0.875 9.5625 C-1.70787063 7.41010781 -3.67327622 7.13861349 -7 7 C-9.10242444 7.85219923 -9.10242444 7.85219923 -10 10 C-9.76522801 13.64541845 -9.76522801 13.64541845 -9 17 C-8.36191406 17.17015625 -7.72382813 17.3403125 -7.06640625 17.515625 C-6.24011719 17.75796875 -5.41382813 18.0003125 -4.5625 18.25 C-3.73878906 18.48203125 -2.91507812 18.7140625 -2.06640625 18.953125 C-1.38449219 19.29859375 -0.70257813 19.6440625 0 20 C0.62915039 22.06542969 0.62915039 22.06542969 1 24 C1.4940332 23.63124756 1.98806641 23.26249512 2.49707031 22.88256836 C4.73854268 21.22092313 6.99385818 19.57916417 9.25 17.9375 C10.02730469 17.35677734 10.80460937 16.77605469 11.60546875 16.17773438 C12.35957031 15.63310547 13.11367188 15.08847656 13.890625 14.52734375 C14.58188477 14.01937256 15.27314453 13.51140137 15.98535156 12.98803711 C18 12 18 12 20.14355469 12.26782227 C22.4992798 13.1969148 23.60026492 13.86356225 25 16 C24.40912205 20.97701046 23.18842442 25.86959898 22.0625 30.75 C21.80823242 31.90048828 21.80823242 31.90048828 21.54882812 33.07421875 C20.23324107 38.76675893 20.23324107 38.76675893 18 41 C15.5 39.875 15.5 39.875 13 38 C12.95834237 36.00043389 12.95834237 33.99956611 13 32 C11.53958234 29.88329643 11.53958234 29.88329643 9 29 C7.2675 29.2475 7.2675 29.2475 5.5 29.5 C2 30 2 30 0.08984375 28.6171875 C-0.59980469 28.08351563 -1.28945313 27.54984375 -2 27 C-4.40644157 26.19059351 -4.40644157 26.19059351 -6.9375 25.625 C-11.48649332 24.35691779 -14.00120191 22.77268146 -17 19 C-18.60725691 15.78548618 -18.47397924 12.48666924 -18 9 C-13.82920414 1.10527926 -8.78926848 -1.73631797 0 0 Z " fill="#3E3F3C" transform="translate(272,93)"/>
<path d="M0 0 C1.98 0 3.96 0 6 0 C6.95619733 3.99795892 7.1039592 7.70803922 7.0625 11.8125 C7.05347656 12.97394531 7.04445312 14.13539062 7.03515625 15.33203125 C7.02355469 16.21246094 7.01195312 17.09289062 7 18 C10.63 18 14.26 18 18 18 C19.31582063 15.73103368 20.62775236 13.45996813 21.9375 11.1875 C22.31068359 10.54490234 22.68386719 9.90230469 23.06835938 9.24023438 C24.63466635 6.51683576 26.00369374 3.98891878 27 1 C29.97 1 32.94 1 36 1 C40.57446809 18.14893617 40.57446809 18.14893617 41 27 C38.69 26.67 36.38 26.34 34 26 C33.67 24.35 33.34 22.7 33 21 C30.36 21 27.72 21 25 21 C24.67 21.99 24.34 22.98 24 24 C16.41 24 8.82 24 1 24 C0.23438866 15.96108096 -0.12883271 8.07351654 0 0 Z " fill="#424340" transform="translate(203,83)"/>
<path d="M0 0 C3.36122323 1.75243262 5.4705066 4.12518482 7.4375 7.375 C8.41900138 11.95533977 7.80577772 15.52857982 5.5625 19.625 C1.87679397 23.04102022 -3.78937902 27 -9 27 C-10.50585523 23.54418685 -12.00368289 20.08495247 -13.5 16.625 C-13.92925781 15.64015625 -14.35851562 14.6553125 -14.80078125 13.640625 C-15.20683594 12.69960937 -15.61289063 11.75859375 -16.03125 10.7890625 C-16.40830078 9.91975098 -16.78535156 9.05043945 -17.17382812 8.15478516 C-18 6 -18 6 -18 4 C-12.15229458 0.90334276 -6.68695372 -1.45805758 0 0 Z " fill="#3E3F3C" transform="translate(173,93)"/>
<path d="M0 0 C2 2 2 2 2.125 5.125 C2.08375 6.07375 2.0425 7.0225 2 8 C2.94875 8.103125 3.8975 8.20625 4.875 8.3125 C8 9 8 9 10 12 C10.625 14.75 10.625 14.75 10 18 C6.77785935 21.58846291 2.99764866 24.3349009 -1 27 C-1.99 27 -2.98 27 -4 27 C-5.44213867 25.34765625 -5.44213867 25.34765625 -6.91796875 23.0625 C-7.44970703 22.25039062 -7.98144531 21.43828125 -8.52929688 20.6015625 C-9.07650391 19.74304688 -9.62371094 18.88453125 -10.1875 18 C-10.74630859 17.14148438 -11.30511719 16.28296875 -11.88085938 15.3984375 C-13.26336842 13.27150051 -14.63581055 11.13871536 -16 9 C-13.06228539 2.71592921 -7.10572382 -1.1842873 0 0 Z " fill="#383836" transform="translate(150,104)"/>
<path d="M0 0 C11.385 3.465 11.385 3.465 23 7 C22.67 9.31 22.34 11.62 22 14 C18.7 13.01 15.4 12.02 12 11 C11.34 13.97 10.68 16.94 10 20 C12.97 20.66 15.94 21.32 19 22 C18.67 23.65 18.34 25.3 18 27 C13.0316778 28.64010409 9.12695202 26.84583327 4.3125 25.3125 C3.43271484 25.05533203 2.55292969 24.79816406 1.64648438 24.53320312 C0.81052734 24.27087891 -0.02542969 24.00855469 -0.88671875 23.73828125 C-1.65201904 23.50149658 -2.41731934 23.26471191 -3.20581055 23.02075195 C-5 22 -5 22 -5.81958008 20.07885742 C-6 18 -6 18 -5 15 C-2.03 15.33 0.94 15.66 4 16 C4.99 13.69 5.98 11.38 7 9 C4.36 8.34 1.72 7.68 -1 7 C-0.67 4.69 -0.34 2.38 0 0 Z " fill="#393A37" transform="translate(91,167)"/>
<path d="M0 0 C3.02089478 -0.02716089 6.04154129 -0.04691657 9.0625 -0.0625 C9.91005859 -0.07087891 10.75761719 -0.07925781 11.63085938 -0.08789062 C16.5361722 -0.10683006 21.16444755 0.16673655 26 1 C27.21837263 6.06756757 27.21837263 6.06756757 27 9 C24.90735437 11.30254625 23.409747 12.61050407 20.875 14.25 C19.70561011 15.06753806 18.53633768 15.88524416 17.3671875 16.703125 C16.79581055 17.08533203 16.22443359 17.46753906 15.63574219 17.86132812 C14.11329595 18.92113249 12.67987028 20.10574968 11.2578125 21.296875 C9 23 9 23 6 23 C5.67 20.69 5.34 18.38 5 16 C5.66 15.67 6.32 15.34 7 15 C6.67 12.36 6.34 9.72 6 7 C4.35 6.67 2.7 6.34 1 6 C0.67 4.02 0.34 2.04 0 0 Z " fill="#383936" transform="translate(320,174)"/>
<path d="M0 0 C3.44256682 1.42557403 6.87805563 2.86747937 10.3125 4.3125 C11.77719727 4.91868164 11.77719727 4.91868164 13.27148438 5.53710938 C14.67817383 6.13168945 14.67817383 6.13168945 16.11328125 6.73828125 C16.97735596 7.09962158 17.84143066 7.46096191 18.73168945 7.83325195 C20.96303255 8.9809851 22.35388355 10.12780747 24 12 C22.375 14.0625 22.375 14.0625 20 16 C18 15.66666667 16 15.33333333 14 15 C11.41666667 16.41666667 11.41666667 16.41666667 10 19 C10.14349347 22.19954954 10.14349347 22.19954954 11 25 C9.35 26.32 7.7 27.64 6 29 C4.28988996 25.61509983 2.61104848 22.21560594 0.9375 18.8125 C0.45216797 17.85279297 -0.03316406 16.89308594 -0.53320312 15.90429688 C-0.98759766 14.97294922 -1.44199219 14.04160156 -1.91015625 13.08203125 C-2.33433838 12.22843018 -2.75852051 11.3748291 -3.19555664 10.49536133 C-4.16156454 7.49883122 -4.02238872 5.96160172 -3 3 C-1.4375 1.1875 -1.4375 1.1875 0 0 Z " fill="#383936" transform="translate(122,121)"/>
<path d="M0 0 C3.98853862 1.67109753 6.49587502 5.30719384 8.88623047 8.7902832 C10.13623047 12.4777832 10.13623047 12.4777832 9.88623047 15.7902832 C7.88623047 18.7277832 7.88623047 18.7277832 4.88623047 20.7902832 C1.39854087 21.42440858 -0.83505942 21.60349796 -3.89501953 19.6574707 C-5.36620779 18.44304643 -6.74829071 17.12245766 -8.11376953 15.7902832 C-8.69126953 16.4709082 -9.26876953 17.1515332 -9.86376953 17.8527832 C-10.60626953 18.4921582 -11.34876953 19.1315332 -12.11376953 19.7902832 C-14.36376953 19.5402832 -14.36376953 19.5402832 -16.11376953 18.7902832 C-16.80395508 17.02197266 -16.80395508 17.02197266 -17.11376953 14.7902832 C-15.91381836 12.94335938 -15.91381836 12.94335938 -14.07080078 11.08325195 C-13.07790039 10.08068359 -13.07790039 10.08068359 -12.06494141 9.05786133 C-11.35917969 8.37143555 -10.65341797 7.68500977 -9.92626953 6.9777832 C-9.23984375 6.27202148 -8.55341797 5.56625977 -7.84619141 4.83911133 C-6.84362305 3.84621094 -6.84362305 3.84621094 -5.82080078 2.83325195 C-5.20696533 2.22505615 -4.59312988 1.61686035 -3.96069336 0.99023438 C-2.11376953 -0.2097168 -2.11376953 -0.2097168 0 0 Z " fill="#3A3A38" transform="translate(309.11376953125,119.209716796875)"/>
<path d="M0 0 C1.65 0.99 3.3 1.98 5 3 C3.66666667 6.33333333 2.33333333 9.66666667 1 13 C1.99 13.33 2.98 13.66 4 14 C4.268125 13.030625 4.53625 12.06125 4.8125 11.0625 C5.4003125 9.5465625 5.4003125 9.5465625 6 8 C6.99 7.67 7.98 7.34 9 7 C9.99 7.99 10.98 8.98 12 10 C10.68 12.64 9.36 15.28 8 18 C9.32 18 10.64 18 12 18 C13.32 15.36 14.64 12.72 16 10 C18.4375 10.375 18.4375 10.375 21 11 C21.33 11.66 21.66 12.32 22 13 C20.85546875 15.2421875 20.85546875 15.2421875 19.1875 17.875 C17.30813265 20.86591716 15.52089538 23.8098292 14 27 C8.67501327 26.49844814 4.64794605 23.65564273 0.1875 20.9375 C-0.60076172 20.46505859 -1.38902344 19.99261719 -2.20117188 19.50585938 C-4.13812608 18.34368685 -6.07078295 17.17495583 -8 16 C-6.57250019 12.20950293 -4.83763458 8.72877544 -2.875 5.1875 C-2.33617188 4.21167969 -1.79734375 3.23585937 -1.2421875 2.23046875 C-0.83226563 1.49441406 -0.42234375 0.75835937 0 0 Z " fill="#3A3B38" transform="translate(103,144)"/>
<path d="M0 0 C1.33838733 2.45570175 2.67086232 4.91429916 4 7.375 C4.3815625 8.07367188 4.763125 8.77234375 5.15625 9.4921875 C8 14.7734375 8 14.7734375 8 17 C6.35 17.66 4.7 18.32 3 19 C2.01 17.68 1.02 16.36 0 15 C-4.81089387 16.35691878 -8.7207404 18.4816284 -12.94921875 21.07421875 C-15 22 -15 22 -18 21 C-18.33 19.35 -18.66 17.7 -19 16 C-14.38 13.36 -9.76 10.72 -5 8 C-4.84188612 4.94729537 -4.84188612 4.94729537 -6 2 C-3 0 -3 0 0 0 Z " fill="#3A3A38" transform="translate(333,147)"/>
<path d="M0 0 C1.65 0.33 3.3 0.66 5 1 C5 2.98 5 4.96 5 7 C5.88042969 7.06058594 6.76085937 7.12117187 7.66796875 7.18359375 C8.82941406 7.26738281 9.99085937 7.35117188 11.1875 7.4375 C12.33605469 7.51871094 13.48460938 7.59992188 14.66796875 7.68359375 C17.51598171 7.95403812 20.21210482 8.37521747 23 9 C23 10.98 23 12.96 23 15 C16.73 14.67 10.46 14.34 4 14 C4 15.98 4 17.96 4 20 C2.33388095 20.042721 0.66617115 20.04063832 -1 20 C-1.33 19.67 -1.66 19.34 -2 19 C-1.93502389 16.35960731 -1.80813202 13.75752285 -1.625 11.125 C-1.58117187 10.39152344 -1.53734375 9.65804687 -1.4921875 8.90234375 C-1.28510314 5.74430722 -1.00512278 3.01536833 0 0 Z " fill="#393A38" transform="translate(84,194)"/>
<path d="M0 0 C2.20466694 1.14034497 3.43746066 1.83875575 4.8125 3.9375 C4.22162205 8.91451046 3.00092442 13.80709898 1.875 18.6875 C1.70548828 19.45449219 1.53597656 20.22148438 1.36132812 21.01171875 C0.04574107 26.70425893 0.04574107 26.70425893 -2.1875 28.9375 C-4.6875 27.8125 -4.6875 27.8125 -7.1875 25.9375 C-7.375 23 -7.375 23 -7.1875 19.9375 C-8.08581016 17.63519234 -8.08581016 17.63519234 -9.1875 15.9375 C-7.5375 15.6075 -5.8875 15.2775 -4.1875 14.9375 C-3.5275 12.6275 -2.8675 10.3175 -2.1875 7.9375 C-3.610625 8.2159375 -3.610625 8.2159375 -5.0625 8.5 C-8.1875 8.9375 -8.1875 8.9375 -10.1875 7.9375 C-8.60950515 3.51911441 -4.89988552 -0.13999673 0 0 Z " fill="#3B3C39" transform="translate(292.1875,105.0625)"/>
<path d="M0 0 C0.50509208 2.24886238 1.00389179 4.49913869 1.5 6.75 C1.7784375 8.00296875 2.056875 9.2559375 2.34375 10.546875 C3 14 3 14 3 18 C6.3 17.34 9.6 16.68 13 16 C13.33 17.98 13.66 19.96 14 22 C12.27318563 22.50806447 10.54342021 23.00610467 8.8125 23.5 C7.84957031 23.7784375 6.88664063 24.056875 5.89453125 24.34375 C3.14654124 24.96677608 0.80401584 25.12302812 -2 25 C-2.67466072 22.12666819 -3.3399234 19.25168518 -4 16.375 C-4.19078125 15.56675781 -4.3815625 14.75851563 -4.578125 13.92578125 C-5.57925543 9.52795831 -6.2353082 5.54438961 -6 1 C-4 0 -4 0 0 0 Z " fill="#3C3C3A" transform="translate(188,86)"/>
<path d="M0 0 C0 2.31 0 4.62 0 7 C-5.94 7.33 -11.88 7.66 -18 8 C-18 11.3 -18 14.6 -18 18 C-19.65 18 -21.3 18 -23 18 C-23.36590746 16.27327966 -23.71722195 14.54346345 -24.0625 12.8125 C-24.35833984 11.36810547 -24.35833984 11.36810547 -24.66015625 9.89453125 C-25.00423947 6.96389138 -24.74164697 4.83692932 -24 2 C-21.31306278 1.66148822 -18.62559711 1.329064 -15.9375 1 C-14.80924805 0.85691406 -14.80924805 0.85691406 -13.65820312 0.7109375 C-9.06578683 0.15428098 -4.6257865 -0.09829028 0 0 Z " fill="#3A3B38" transform="translate(351,196)"/>
<path d="M0 0 C1.98 0 3.96 0 6 0 C7.00926479 4.15626368 7.10239579 8.04365094 7.0625 12.3125 C7.05347656 13.56675781 7.04445312 14.82101563 7.03515625 16.11328125 C7.01775391 17.54220703 7.01775391 17.54220703 7 19 C9.97 19 12.94 19 16 19 C16.33 20.65 16.66 22.3 17 24 C11.72 24 6.44 24 1 24 C0.23438866 15.96108096 -0.12883271 8.07351654 0 0 Z " fill="#343532" transform="translate(203,83)"/>
<path d="M0 0 C0.99 0.33 1.98 0.66 3 1 C3.33 2.65 3.66 4.3 4 6 C1.91689914 7.60446931 -0.16647227 9.20858518 -2.25 10.8125 C-3.12978516 11.49022461 -3.12978516 11.49022461 -4.02734375 12.18164062 C-5.17077021 13.06169357 -6.31590924 13.93952667 -7.46289062 14.81494141 C-8.73660415 15.79693084 -9.98854778 16.80708359 -11.234375 17.82421875 C-13 19 -13 19 -16 19 C-18 16 -18 16 -17.984375 14.0625 C-16.49047336 10.93242038 -14.16064544 9.81737861 -11.25 8 C-8.09212237 6.00882593 -5.13600838 4.11635399 -2.296875 1.6875 C-1.53890625 1.130625 -0.7809375 0.57375 0 0 Z " fill="#424240" transform="translate(324,137)"/>
<path d="M0 0 C2.64 0.99 5.28 1.98 8 3 C7 6 7 6 5 9 C7.475 9.99 7.475 9.99 10 11 C8.71937515 12.7074998 7.38232443 14.37373596 6 16 C5.34 16 4.68 16 4 16 C4 16.99 4 17.98 4 19 C3.01 19 2.02 19 1 19 C0.1290621 17.27921959 -0.72114558 15.54793677 -1.5625 13.8125 C-2.27599609 12.36810547 -2.27599609 12.36810547 -3.00390625 10.89453125 C-4.11927895 7.65338939 -4.15576206 6.1985043 -3 3 C-2.01 2.01 -1.02 1.02 0 0 Z " fill="#393937" transform="translate(122,121)"/>
<path d="M0 0 C2.72772061 1.67338888 4.86584445 3.62557528 7 6 C6 9 6 9 3.9375 10.1875 C3.298125 10.455625 2.65875 10.72375 2 11 C1.62875 10.525625 1.2575 10.05125 0.875 9.5625 C-1.79220868 7.3398261 -3.53137641 7.13089146 -7 7 C-9.16837727 7.67029912 -11.19611908 8.47577447 -13.265625 9.40625 C-13.83796875 9.6021875 -14.4103125 9.798125 -15 10 C-15.66 9.67 -16.32 9.34 -17 9 C-14.41752557 0.54826551 -8.26705827 -1.77151249 0 0 Z " fill="#383936" transform="translate(272,93)"/>
<path d="M0 0 C4.29 0.33 8.58 0.66 13 1 C13.33 3.64 13.66 6.28 14 9 C11.36 10.98 8.72 12.96 6 15 C5.34 14.01 4.68 13.02 4 12 C1.94074861 11.27617533 1.94074861 11.27617533 0 11 C-0.33 9.35 -0.66 7.7 -1 6 C0.32 5.34 1.64 4.68 3 4 C3 3.34 3 2.68 3 2 C2.01 1.34 1.02 0.68 0 0 Z " fill="#3B3C3A" transform="translate(333,174)"/>
<path d="M0 0 C0.99 0 1.98 0 3 0 C5.38135792 8.30706251 7.59128562 16.31481952 8 25 C5.69 24.67 3.38 24.34 1 24 C0.6603981 22.12612523 0.32861309 20.25083303 0 18.375 C-0.185625 17.33085938 -0.37125 16.28671875 -0.5625 15.2109375 C-0.98715797 12.09425135 -1.07545206 9.14069188 -1 6 C-1.66 5.67 -2.32 5.34 -3 5 C-1.6875 2.5 -1.6875 2.5 0 0 Z " fill="#393937" transform="translate(236,85)"/>
<path d="M0 0 C2.31 0.66 4.62 1.32 7 2 C7 2.66 7 3.32 7 4 C7.99 4.33 8.98 4.66 10 5 C9.58675744 10.2688427 8.77055562 13.22944438 5 17 C2.31591712 18.70805274 1.23830467 19 -2 19 C-2.33 18.34 -2.66 17.68 -3 17 C-3.66 17.33 -4.32 17.66 -5 18 C-5.33 17.01 -5.66 16.02 -6 15 C-2.04 12.525 -2.04 12.525 2 10 C1.54177532 6.53058454 1.10868317 3.32604951 0 0 Z " fill="#383A37" transform="translate(171,98)"/>
<path d="M0 0 C0 4.04179492 -0.51700716 5.65365617 -2.25 9.1875 C-2.66765625 10.06792969 -3.0853125 10.94835937 -3.515625 11.85546875 C-5 14 -5 14 -7.078125 14.69921875 C-7.71234375 14.79847656 -8.3465625 14.89773437 -9 15 C-9.495 15.53625 -9.99 16.0725 -10.5 16.625 C-11.2425 17.305625 -11.2425 17.305625 -12 18 C-14.1875 17.6875 -14.1875 17.6875 -16 17 C-16.82421875 15.3515625 -16.82421875 15.3515625 -17 13 C-15.32781411 10.89696262 -13.75472508 9.19325327 -11.8125 7.375 C-11.31685547 6.88515625 -10.82121094 6.3953125 -10.31054688 5.890625 C-4.21873933 0 -4.21873933 0 0 0 Z " fill="#383836" transform="translate(309,121)"/>
<path d="M0 0 C0.625 3.0625 0.625 3.0625 1 6 C0.34 6 -0.32 6 -1 6 C-1.33 5.34 -1.66 4.68 -2 4 C-3.32 4 -4.64 4 -6 4 C-5.67 7.3 -5.34 10.6 -5 14 C-6.32 14.33 -7.64 14.66 -9 15 C-10.98 12.03 -12.96 9.06 -15 6 C-13.09504231 2.19008463 -12.46685232 1.08011139 -9 -1 C-4.9685945 -2.15183014 -3.65052598 -1.82526299 0 0 Z " fill="#3B3C39" transform="translate(149,107)"/>
<path d="M0 0 C1.67542976 0.28604898 3.34385343 0.61781233 5 1 C5 1.66 5 2.32 5 3 C5.66 3.33 6.32 3.66 7 4 C6.34 4.66 5.68 5.32 5 6 C7.475 6.99 7.475 6.99 10 8 C10 9.32 10 10.64 10 12 C8.5390625 13.44921875 8.5390625 13.44921875 6.625 14.6875 C5.99851563 15.10386719 5.37203125 15.52023438 4.7265625 15.94921875 C3 17 3 17 1 18 C-2 14.25 -2 14.25 -2 12 C-1.34 11.34 -0.68 10.68 0 10 C-0.01527977 7.81148975 -0.01527977 7.81148975 -0.4375 5.4375 C-0.66155892 3.96342813 -0.85767992 2.48419516 -1 1 C-0.67 0.67 -0.34 0.34 0 0 Z " fill="#3D3D3B" transform="translate(143,110)"/>
<path d="M0 0 C0 1.32 0 2.64 0 4 C0.66 4 1.32 4 2 4 C1.67 4.66 1.34 5.32 1 6 C0.34 5.67 -0.32 5.34 -1 5 C-1.556875 5.804375 -2.11375 6.60875 -2.6875 7.4375 C-5.21864487 10.24228216 -6.32579134 10.69381595 -10 11 C-10 11.66 -10 12.32 -10 13 C-11.32 13.33 -12.64 13.66 -14 14 C-13.67 13.34 -13.34 12.68 -13 12 C-12.34 12 -11.68 12 -11 12 C-11 11.34 -11 10.68 -11 10 C-12.65 10 -14.3 10 -16 10 C-15.8671875 8.23828125 -15.8671875 8.23828125 -15 6 C-12.3828125 4.04296875 -12.3828125 4.04296875 -9.125 2.1875 C-8.05507813 1.56230469 -6.98515625 0.93710937 -5.8828125 0.29296875 C-3 -1 -3 -1 0 0 Z " fill="#B4B0AF" transform="translate(285,319)"/>
<path d="M0 0 C0.33 0.66 0.66 1.32 1 2 C3.64 2 6.28 2 9 2 C8.9375 5.3125 8.9375 5.3125 8 9 C4.81607187 10.9223717 2.57841867 12.27058606 -1.1875 11.625 C-1.785625 11.41875 -2.38375 11.2125 -3 11 C-5.18703385 11.37907282 -5.18703385 11.37907282 -7 12 C-6.42655063 9.13275314 -6.1385485 8.1385485 -4 6 C-2.64837492 4.01231606 -1.31306433 2.0133653 0 0 Z " fill="#3A3B38" transform="translate(281,111)"/>
<path d="M0 0 C4.25219775 0.47246642 6.37314725 2.77272377 9 6 C9 9.45502189 6.82428208 12.14460196 5 15 C2.625 14.6875 2.625 14.6875 0 14 C-0.66 13.01 -1.32 12.02 -2 11 C-1.649375 10.38125 -1.29875 9.7625 -0.9375 9.125 C-0.4734375 8.073125 -0.4734375 8.073125 0 7 C-0.33 6.34 -0.66 5.68 -1 5 C-0.01 4.01 0.98 3.02 2 2 C0.35 2.66 -1.3 3.32 -3 4 C-2.01 2.68 -1.02 1.36 0 0 Z " fill="#3C3D3A" transform="translate(307,119)"/>
<path d="M0 0 C0.33 0 0.66 0 1 0 C1.67138621 3.26988299 2.33629263 6.54105049 3 9.8125 C3.19078125 10.74126953 3.3815625 11.67003906 3.578125 12.62695312 C3.75859375 13.51962891 3.9390625 14.41230469 4.125 15.33203125 C4.29257813 16.15421143 4.46015625 16.9763916 4.6328125 17.82348633 C5 20 5 20 5 23 C3.68 22.67 2.36 22.34 1 22 C-0.32 23.98 -1.64 25.96 -3 28 C-3.66 27.67 -4.32 27.34 -5 27 C-4.319375 26.175 -3.63875 25.35 -2.9375 24.5 C-1.12630947 21.79921412 -0.75620603 20.10345868 -1.125 16.875 C-1.7663798 13.18221888 -1.7663798 13.18221888 -3.1875 10.875 C-4 9 -4 9 -3.125 5.75 C-2.75375 4.8425 -2.3825 3.935 -2 3 C-1.34 3 -0.68 3 0 3 C0 2.01 0 1.02 0 0 Z " fill="#D6D3D2" transform="translate(181,87)"/>
<path d="M0 0 C1.7325 0.1546875 1.7325 0.1546875 3.5 0.3125 C5.5 3.3125 5.5 3.3125 5.25 5.875 C4.5 8.3125 4.5 8.3125 2.5 10.3125 C-0.5 10.5625 -0.5 10.5625 -3.5 10.3125 C-5.5 8.3125 -5.5 8.3125 -5.75 5.3125 C-5.37833659 0.85253908 -4.40663794 0.39344982 0 0 Z " fill="#3B3B39" transform="translate(343.5,226.6875)"/>
<path d="M0 0 C3.5625 0.1875 3.5625 0.1875 5.5625 2.1875 C5.8125 5.1875 5.8125 5.1875 5.5625 8.1875 C3.5625 10.1875 3.5625 10.1875 0.625 10.5 C-2.4375 10.1875 -2.4375 10.1875 -4.375 9.0625 C-5.97693488 6.23555609 -5.23334319 4.23823223 -4.4375 1.1875 C-3.4375 0.1875 -3.4375 0.1875 0 0 Z " fill="#373836" transform="translate(89.4375,226.8125)"/>
<path d="M0 0 C1.65 0 3.3 0 5 0 C4.67 1.32 4.34 2.64 4 4 C5.65 4.33 7.3 4.66 9 5 C9 5.66 9 6.32 9 7 C8.07767578 7.14695312 8.07767578 7.14695312 7.13671875 7.296875 C2.00590695 8.13291046 2.00590695 8.13291046 -2.0625 11.125 C-2.371875 11.74375 -2.68125 12.3625 -3 13 C-0.58354218 13.16687448 -0.58354218 13.16687448 2 13 C2.66 12.34 3.32 11.68 4 11 C4.66 11.33 5.32 11.66 6 12 C6 12.66 6 13.32 6 14 C4.25 15.2890625 4.25 15.2890625 2 16.625 C1.2575 17.07101562 0.515 17.51703125 -0.25 17.9765625 C-0.8275 18.31429688 -1.405 18.65203125 -2 19 C-3.7074998 17.71937515 -5.37373596 16.38232443 -7 15 C-7 14.34 -7 13.68 -7 13 C-6.01 13 -5.02 13 -4 13 C-4 10.36 -4 7.72 -4 5 C-2.68 4.67 -1.36 4.34 0 4 C0 3.01 0 2.02 0 1 C0 0.67 0 0.34 0 0 Z " fill="#A8A4A3" transform="translate(312,286)"/>
<path d="M0 0 C1.98 0 3.96 0 6 0 C6.85298376 3.67387495 7.10789471 7.0447393 7.0625 10.8125 C7.05347656 11.78832031 7.04445312 12.76414062 7.03515625 13.76953125 C7.02355469 14.50558594 7.01195312 15.24164063 7 16 C3.535 14.02 3.535 14.02 0 12 C0 8.04 0 4.08 0 0 Z " fill="#3E3E3C" transform="translate(203,83)"/>
<path d="M0 0 C0.33 1.32 0.66 2.64 1 4 C0.01 4.495 0.01 4.495 -1 5 C-1 5.66 -1 6.32 -1 7 C0.65 7.33 2.3 7.66 4 8 C4.625 10.375 4.625 10.375 5 13 C3 15 3 15 0.375 15.125 C-0.40875 15.08375 -1.1925 15.0425 -2 15 C-2.33 13.35 -2.66 11.7 -3 10 C-3.66 10 -4.32 10 -5 10 C-6.125 6.25 -6.125 6.25 -5 4 C-5.66 4 -6.32 4 -7 4 C-7 3.34 -7 2.68 -7 2 C-4.35261084 0.5393715 -3.10551666 0 0 0 Z " fill="#9E9A99" transform="translate(108,267)"/>
<path d="M0 0 C1.33838733 2.45570175 2.67086232 4.91429916 4 7.375 C4.3815625 8.07367188 4.763125 8.77234375 5.15625 9.4921875 C8 14.7734375 8 14.7734375 8 17 C6.35 17.66 4.7 18.32 3 19 C1.68 17.02 0.36 15.04 -1 13 C-0.01 12.319375 -0.01 12.319375 1 11.625 C1.66 11.08875 2.32 10.5525 3 10 C3 9.34 3 8.68 3 8 C0.69 7.67 -1.62 7.34 -4 7 C-4.66 5.35 -5.32 3.7 -6 2 C-3 0 -3 0 0 0 Z " fill="#424240" transform="translate(333,147)"/>
<path d="M0 0 C3.375 0.3125 3.375 0.3125 7 1 C9.1610211 4.24153166 9.64247553 5.23692901 9 9 C6.5 11.3125 6.5 11.3125 4 13 C1.67759954 10.14978125 0.06093473 7.53644909 -1 4 C-0.625 1.6875 -0.625 1.6875 0 0 Z " fill="#DAD9D7" transform="translate(165,99)"/>
<path d="M0 0 C0.33 0.99 0.66 1.98 1 3 C3.00016466 4.20882096 3.00016466 4.20882096 5 5 C4.45276317 8.37462715 3.9451 10.08235 2 13 C1.67 12.01 1.34 11.02 1 10 C-0.32 10 -1.64 10 -3 10 C-4.68698082 9.38655243 -6.35965807 8.72904086 -8 8 C-6.8125 4.5625 -6.8125 4.5625 -5 1 C-2.3125 0.0625 -2.3125 0.0625 0 0 Z " fill="#B6B2B1" transform="translate(162,321)"/>
<path d="M0 0 C0.66 0.33 1.32 0.66 2 1 C1.83631219 7.38382469 -1.85116257 11.4903941 -6 16 C-7.30567589 17.03585145 -8.63163999 18.04849138 -10 19 C-10 18.34 -10 17.68 -10 17 C-10.66 17 -11.32 17 -12 17 C-12 15.35 -12 13.7 -12 12 C-11.67 12.99 -11.34 13.98 -11 15 C-10.34 15 -9.68 15 -9 15 C-8.95875 14.2575 -8.9175 13.515 -8.875 12.75 C-7.65153054 8.90481027 -5.36897018 8.03541948 -2 6 C-1.67 5.34 -1.34 4.68 -1 4 C-1.66 4 -2.32 4 -3 4 C-3 3.34 -3 2.68 -3 2 C-2.01 1.34 -1.02 0.68 0 0 Z " fill="#3E3F3D" transform="translate(277,217)"/>
<path d="M0 0 C5.68502535 1.64566523 10.76681636 4.29032784 16 7 C14.34375 8.57421875 14.34375 8.57421875 12 10 C9.34375 9.70703125 9.34375 9.70703125 6.5 8.8125 C5.09234375 8.38904297 5.09234375 8.38904297 3.65625 7.95703125 C1.32232002 7.11613001 -0.81594913 6.16929138 -3 5 C-2.34 5 -1.68 5 -1 5 C-0.67 3.35 -0.34 1.7 0 0 Z " fill="#DCDBD9" transform="translate(101,164)"/>
<path d="M0 0 C2.46060345 3.02843502 4.87203778 6.09389512 7.25 9.1875 C7.77078125 9.86167969 8.2915625 10.53585938 8.828125 11.23046875 C10 13 10 13 10 15 C10.66 15.33 11.32 15.66 12 16 C6.93001981 15.34580901 2.58009223 13.1453591 -2 11 C-0.125 7.125 -0.125 7.125 1 6 C0.34 5.67 -0.32 5.34 -1 5 C-0.67 3.35 -0.34 1.7 0 0 Z " fill="#D1D0CE" transform="translate(136,116)"/>
<path d="M0 0 C0.93423645 3.01031744 1.04449911 3.86650268 0 7 C0.99 7 1.98 7 3 7 C3.66 5.02 4.32 3.04 5 1 C5.33 1 5.66 1 6 1 C6 3.31 6 5.62 6 8 C6.99 8 7.98 8 9 8 C9.33 6.02 9.66 4.04 10 2 C12.62113708 2 14.50935112 2.31292445 17 3 C16.01 3 15.02 3 14 3 C14 3.66 14 4.32 14 5 C14.99 5.33 15.98 5.66 17 6 C16.01 6 15.02 6 14 6 C14 6.99 14 7.98 14 9 C14.99 9.33 15.98 9.66 17 10 C13.12371886 10 9.35620351 9.96940459 5.5 9.5625 C4.7059375 9.48128906 3.911875 9.40007812 3.09375 9.31640625 C1 9 1 9 -1 8 C-1.125 2.25 -1.125 2.25 0 0 Z " fill="#8E8A89" transform="translate(194,335)"/>
<path d="M0 0 C2.97 0 5.94 0 9 0 C8.01 0.33 7.02 0.66 6 1 C4.78130071 3.50447516 4.78130071 3.50447516 4 6 C4.33 6.33 4.66 6.66 5 7 C5.04092937 9.33297433 5.04241723 11.66705225 5 14 C3.68 14 2.36 14 1 14 C1 11.03 1 8.06 1 5 C-0.93798263 7.77260299 -0.93798263 7.77260299 -2 10 C-2.66 9.34 -3.32 8.68 -4 8 C-2.68 5.36 -1.36 2.72 0 0 Z " fill="#434442" transform="translate(230,84)"/>
<path d="M0 0 C2.64 0.99 5.28 1.98 8 3 C7 6 7 6 5 9 C7.475 9.99 7.475 9.99 10 11 C8.68 12.32 7.36 13.64 6 15 C5.60167969 14.30132812 5.20335938 13.60265625 4.79296875 12.8828125 C4.26316406 11.97273437 3.73335938 11.06265625 3.1875 10.125 C2.66542969 9.22007812 2.14335938 8.31515625 1.60546875 7.3828125 C0.06266201 4.76726817 0.06266201 4.76726817 -3 3 C-2.01 2.01 -1.02 1.02 0 0 Z " fill="#3E403D" transform="translate(122,121)"/>
<path d="M0 0 C0.99 1.32 1.98 2.64 3 4 C2.67 4.66 2.34 5.32 2 6 C0.68 5.34 -0.64 4.68 -2 4 C-1.67 5.32 -1.34 6.64 -1 8 C-3.1875 9.625 -3.1875 9.625 -6 11 C-8.75 10.5 -8.75 10.5 -11 9 C-11.9375 6.5 -11.9375 6.5 -12 4 C-11.34 3.34 -10.68 2.68 -10 2 C-9.01 2.33 -8.02 2.66 -7 3 C-7.66 4.65 -8.32 6.3 -9 8 C-8.01 8.33 -7.02 8.66 -6 9 C-6 8.34 -6 7.68 -6 7 C-6.66 6.67 -7.32 6.34 -8 6 C-7.01 5.67 -6.02 5.34 -5 5 C-4.26676204 2.98491642 -4.26676204 2.98491642 -4 1 C-3.01 1.33 -2.02 1.66 -1 2 C-0.67 1.34 -0.34 0.68 0 0 Z " fill="#837F7E" transform="translate(264,329)"/>
<path d="M0 0 C0.66 0 1.32 0 2 0 C3.125 4.75 3.125 4.75 2 7 C2.66 7 3.32 7 4 7 C4 7.66 4 8.32 4 9 C2.02 9.66 0.04 10.32 -2 11 C-2.66 9.68 -3.32 8.36 -4 7 C-4.99 7.33 -5.98 7.66 -7 8 C-7 7.34 -7 6.68 -7 6 C-5.35 5.34 -3.7 4.68 -2 4 C-2 3.34 -2 2.68 -2 2 C-1.34 2 -0.68 2 0 2 C0 1.34 0 0.68 0 0 Z " fill="#B6B2B1" transform="translate(297,306)"/>
<path d="M0 0 C0.99 0.33 1.98 0.66 3 1 C3.66 1 4.32 1 5 1 C6.67745682 1.63903117 8.34561387 2.30341637 10 3 C9.360625 3.61875 8.72125 4.2375 8.0625 4.875 C5.96116416 6.82597612 5.96116416 6.82597612 5 9 C4.401875 8.835 3.80375 8.67 3.1875 8.5 C0.88655664 7.8885876 0.88655664 7.8885876 -2 8 C-1.125 2.25 -1.125 2.25 0 0 Z " fill="#C1BDBC" transform="translate(147,318)"/>
<path d="M0 0 C1.73662334 3.22515763 2.8905928 6.51329166 4 10 C1.525 11.485 1.525 11.485 -1 13 C-3.34793424 9.57592924 -4.77262438 7.19424661 -4 3 C-2 1.1875 -2 1.1875 0 0 Z " fill="#383836" transform="translate(162,98)"/>
<path d="M0 0 C2.31 0.66 4.62 1.32 7 2 C6.67 3.65 6.34 5.3 6 7 C1.99799622 8.60080151 -1.04556236 7.29279692 -5 6 C-3.625 4 -3.625 4 -2 2 C-1.34 2 -0.68 2 0 2 C0 1.34 0 0.68 0 0 Z " fill="#3F3E3C" transform="translate(103,187)"/>
<path d="M0 0 C1.33841672 0.31229724 2.67139075 0.64830932 4 1 C4.99 1 5.98 1 7 1 C7.12375 1.928125 7.12375 1.928125 7.25 2.875 C7.81258459 5.18437567 7.81258459 5.18437567 10.0625 6.25 C10.701875 6.4975 11.34125 6.745 12 7 C9.69 6.67 7.38 6.34 5 6 C4.67 6.66 4.34 7.32 4 8 C3.34 7.34 2.68 6.68 2 6 C1.67 6.66 1.34 7.32 1 8 C0.34 8 -0.32 8 -1 8 C-1.04241723 5.66705225 -1.04092937 3.33297433 -1 1 C-0.67 0.67 -0.34 0.34 0 0 Z " fill="#959492" transform="translate(230,336)"/>
<path d="M0 0 C0.33 0 0.66 0 1 0 C1.33 1.65 1.66 3.3 2 5 C3.32 3.68 4.64 2.36 6 1 C6.66 1.66 7.32 2.32 8 3 C8.66 2.67 9.32 2.34 10 2 C11.35439668 4.70879335 11.06501451 7.00933268 11 10 C10.67 9.34 10.34 8.68 10 8 C8.35 8.33 6.7 8.66 5 9 C4.67 8.01 4.34 7.02 4 6 C2.02 6.99 2.02 6.99 0 8 C0 5.36 0 2.72 0 0 Z " fill="#8F8B8A" transform="translate(180,332)"/>
<path d="M0 0 C0 1.98 0 3.96 0 6 C0.66 6.33 1.32 6.66 2 7 C1.21625 7.45375 0.4325 7.9075 -0.375 8.375 C-3.03698031 9.88428742 -3.03698031 9.88428742 -5 12 C-4.7525 11.0409375 -4.7525 11.0409375 -4.5 10.0625 C-3.96073333 8.19173179 -3.96073333 8.19173179 -4 7 C-5.32 6.34 -6.64 5.68 -8 5 C-8 4.01 -8 3.02 -8 2 C-2.25 0 -2.25 0 0 0 Z " fill="#959190" transform="translate(103,254)"/>
<path d="M0 0 C2.31 0 4.62 0 7 0 C7 0.99 7 1.98 7 3 C7.66 3 8.32 3 9 3 C9.33 4.32 9.66 5.64 10 7 C8.02 7.99 8.02 7.99 6 9 C5.67 8.01 5.34 7.02 5 6 C2.98491642 5.26676204 2.98491642 5.26676204 1 5 C0.67 3.35 0.34 1.7 0 0 Z " fill="#3D3D3B" transform="translate(332,180)"/>
<path d="M0 0 C1 3 1 3 0 6 C1.32 6.99 2.64 7.98 4 9 C2.68 9 1.36 9 0 9 C-0.33 10.65 -0.66 12.3 -1 14 C-0.34 14 0.32 14 1 14 C0.67 14.66 0.34 15.32 0 16 C-1.98 14.68 -3.96 13.36 -6 12 C-5.319375 10.948125 -5.319375 10.948125 -4.625 9.875 C-2.98330824 6.97046843 -2.00849856 4.16956692 -1 1 C-0.67 0.67 -0.34 0.34 0 0 Z " fill="#92908E" transform="translate(327,266)"/>
<path d="M0 0 C-0.66 2.31 -1.32 4.62 -2 7 C-2.66 6.34 -3.32 5.68 -4 5 C-6.06874034 4.3574765 -6.06874034 4.3574765 -8 4 C-8.33 4.99 -8.66 5.98 -9 7 C-9.66 4.69 -10.32 2.38 -11 0 C-7.07632508 -2.82504594 -4.32061114 -1.49559616 0 0 Z " fill="#D8D5D4" transform="translate(92,190)"/>
<path d="M0 0 C0.66 1.32 1.32 2.64 2 4 C1.21625 4.28875 0.4325 4.5775 -0.375 4.875 C-3.09671632 5.84912254 -3.09671632 5.84912254 -5 8 C-7.625 8.625 -7.625 8.625 -10 9 C-10.93423645 5.98968256 -11.04449911 5.13349732 -10 2 C-7.03 2.33 -4.06 2.66 -1 3 C-0.67 2.01 -0.34 1.02 0 0 Z " fill="#454543" transform="translate(96,180)"/>
<path d="M0 0 C2.6875 0.875 2.6875 0.875 5 2 C5 2.66 5 3.32 5 4 C4.01 4.495 4.01 4.495 3 5 C2.34786708 7.02463255 2.34786708 7.02463255 2 9 C-0.475 8.01 -0.475 8.01 -3 7 C-3.1875 4.625 -3.1875 4.625 -3 2 C-2.01 1.34 -1.02 0.68 0 0 Z " fill="#ABA7A6" transform="translate(143,313)"/>
<path d="M0 0 C1 2 1 2 0.1875 4.5625 C-1 7 -1 7 -3 8 C-3 9.32 -3 10.64 -3 12 C-3.99 11.67 -4.98 11.34 -6 11 C-5.67 9.68 -5.34 8.36 -5 7 C-6.32 6.67 -7.64 6.34 -9 6 C-8.34 6 -7.68 6 -7 6 C-7.33 4.35 -7.66 2.7 -8 1 C-5.69 1.66 -3.38 2.32 -1 3 C-0.67 2.01 -0.34 1.02 0 0 Z " fill="#979392" transform="translate(338,256)"/>
<path d="M0 0 C2 1 2 1 4 4 C6.05925139 4.72382467 6.05925139 4.72382467 8 5 C7.67 5.66 7.34 6.32 7 7 C5.68 6.67 4.36 6.34 3 6 C3.33 7.98 3.66 9.96 4 12 C3.01 11.67 2.02 11.34 1 11 C1 8.69 1 6.38 1 4 C0.34 4 -0.32 4 -1 4 C-1.33 5.32 -1.66 6.64 -2 8 C-2.66 6.68 -3.32 5.36 -4 4 C-2.68 2.68 -1.36 1.36 0 0 Z " fill="#A29E9D" transform="translate(126,298)"/>
<path d="M0 0 C-0.66 0 -1.32 0 -2 0 C-2.28875 0.928125 -2.5775 1.85625 -2.875 2.8125 C-4 6 -4 6 -6 9 C-7.32 8.67 -8.64 8.34 -10 8 C-8.125 2.25 -8.125 2.25 -7 0 C-4.0262656 -1.09036928 -3.11592499 -1.03864166 0 0 Z " fill="#D6D6D4" transform="translate(121,154)"/>
<path d="M0 0 C2.4375 0.75 2.4375 0.75 5 2 C5.8125 4.125 5.8125 4.125 6 6 C3.69 6.66 1.38 7.32 -1 8 C-1.99 7.01 -2.98 6.02 -4 5 C-2.68 3.35 -1.36 1.7 0 0 Z " fill="#343432" transform="translate(331,153)"/>
<path d="M0 0 C0.99 0.33 1.98 0.66 3 1 C3 1.66 3 2.32 3 3 C2.34 3 1.68 3 1 3 C1.33 4.65 1.66 6.3 2 8 C0.02 8.99 0.02 8.99 -2 10 C-2.99 9.01 -3.98 8.02 -5 7 C-3.70700306 4.11562221 -2.34058637 2.12780579 0 0 Z " fill="#D7D4D3" transform="translate(136,135)"/>
<path d="M0 0 C0.99 0 1.98 0 3 0 C3.33 2.97 3.66 5.94 4 9 C2.68 9.33 1.36 9.66 0 10 C-0.12375 9.360625 -0.2475 8.72125 -0.375 8.0625 C-0.684375 7.0415625 -0.684375 7.0415625 -1 6 C-1.66 5.67 -2.32 5.34 -3 5 C-1.6875 2.5 -1.6875 2.5 0 0 Z " fill="#343633" transform="translate(236,85)"/>
<path d="M0 0 C1.67542976 0.28604898 3.34385343 0.61781233 5 1 C5.38218767 2.65614657 5.71395102 4.32457024 6 6 C5 7 5 7 2.5 7.125 C0 7 0 7 -1 6 C-1.125 3.5 -1.125 3.5 -1 1 C-0.67 0.67 -0.34 0.34 0 0 Z " fill="#BDBAB9" transform="translate(238,335)"/>
<path d="M0 0 C1.65 0 3.3 0 5 0 C4.67 1.32 4.34 2.64 4 4 C5.65 4.33 7.3 4.66 9 5 C9 5.66 9 6.32 9 7 C3.06 7.495 3.06 7.495 -3 8 C-3 7.01 -3 6.02 -3 5 C-1.68 4.34 -0.36 3.68 1 3 C0.67 2.01 0.34 1.02 0 0 Z " fill="#BAB6B5" transform="translate(312,286)"/>
<path d="M0 0 C0.33 0.66 0.66 1.32 1 2 C1.66 2.33 2.32 2.66 3 3 C2.67 3.99 2.34 4.98 2 6 C-1.5625 7.1875 -1.5625 7.1875 -5 8 C-5.33 6.68 -5.66 5.36 -6 4 C-4.02 2.68 -2.04 1.36 0 0 Z " fill="#C6C2C1" transform="translate(105,260)"/>
<path d="M0 0 C0.33 0.99 0.66 1.98 1 3 C0.54625 3.4125 0.0925 3.825 -0.375 4.25 C-2.05950374 6.06408095 -2.99265971 7.75285627 -4 10 C-5.32 9.67 -6.64 9.34 -8 9 C-4.5 0 -4.5 0 0 0 Z " fill="#DADAD8" transform="translate(111,148)"/>
<path d="M0 0 C0.99 0 1.98 0 3 0 C3 0.66 3 1.32 3 2 C4.32 2.33 5.64 2.66 7 3 C6.67 4.65 6.34 6.3 6 8 C5.34 7.34 4.68 6.68 4 6 C3.01 6.33 2.02 6.66 1 7 C0.67 6.34 0.34 5.68 0 5 C-0.66 5.66 -1.32 6.32 -2 7 C-1.125 1.125 -1.125 1.125 0 0 Z " fill="#AEAAA9" transform="translate(169,328)"/>
<path d="M0 0 C0.33 0.66 0.66 1.32 1 2 C0.67 2.66 0.34 3.32 0 4 C1.32 3.34 2.64 2.68 4 2 C4.66 3.32 5.32 4.64 6 6 C4 8 4 8 1.4375 8.1875 C-1 8 -1 8 -2 7 C-2.1875 4.5625 -2.1875 4.5625 -2 2 C-1.34 1.34 -0.68 0.68 0 0 Z " fill="#A5A1A0" transform="translate(303,301)"/>
<path d="M0 0 C2.31 0 4.62 0 7 0 C7 2.31 7 4.62 7 7 C5.35 6.67 3.7 6.34 2 6 C1.34 4.02 0.68 2.04 0 0 Z " fill="#464845" transform="translate(344,196)"/>
<path d="M0 0 C2.475 0.99 2.475 0.99 5 2 C4.01 4.31 3.02 6.62 2 9 C1.67 8.01 1.34 7.02 1 6 C-0.32 6.33 -1.64 6.66 -3 7 C-1.125 1.125 -1.125 1.125 0 0 Z " fill="#434240" transform="translate(110,151)"/>
<path d="M0 0 C1.9375 0.75 1.9375 0.75 4 2 C4.75 4.125 4.75 4.125 5 6 C3.35 6.33 1.7 6.66 0 7 C-0.99 5.68 -1.98 4.36 -3 3 C-2.01 2.01 -1.02 1.02 0 0 Z " fill="#D4D4D2" transform="translate(308,127)"/>
<path d="M0 0 C2.97 1.32 5.94 2.64 9 4 C7.5 5.625 7.5 5.625 5 7 C2.16836197 6.65955497 -0.25986036 5.86771089 -3 5 C-2.01 3.35 -1.02 1.7 0 0 Z " fill="#D5D4D2" transform="translate(108,167)"/>
<path d="M0 0 C1.65 0.99 3.3 1.98 5 3 C3.7508258 6.45925163 2.32472205 9.14693203 0 12 C-0.95595724 7.6981924 -1.42543615 4.27630845 0 0 Z " fill="#424240" transform="translate(103,144)"/>
<path d="M0 0 C2.31 0.66 4.62 1.32 7 2 C6.01 2.33 5.02 2.66 4 3 C4 4.65 4 6.3 4 8 C2.35 7.67 0.7 7.34 -1 7 C-0.67 4.69 -0.34 2.38 0 0 Z " fill="#41413F" transform="translate(91,167)"/>
<path d="M0 0 C1.32 0.33 2.64 0.66 4 1 C3.45276317 4.37462715 2.9451 6.08235 1 9 C0.67 8.01 0.34 7.02 0 6 C-0.99 6 -1.98 6 -3 6 C-2.01 4.02 -1.02 2.04 0 0 Z " fill="#928E8D" transform="translate(163,325)"/>
<path d="M0 0 C0.99 0.33 1.98 0.66 3 1 C3 2.32 3 3.64 3 5 C3.66 5 4.32 5 5 5 C4.67 5.66 4.34 6.32 4 7 C3.34 6.67 2.68 6.34 2 6 C1.34 6.66 0.68 7.32 0 8 C-0.99 6.02 -1.98 4.04 -3 2 C-2.01 1.34 -1.02 0.68 0 0 Z " fill="#8F8B8A" transform="translate(282,318)"/>
<path d="M0 0 C0.33 1.32 0.66 2.64 1 4 C1.99 3.67 2.98 3.34 4 3 C5.125 9.75 5.125 9.75 4 12 C3.34 12 2.68 12 2 12 C2 10.35 2 8.7 2 7 C1.67 7.66 1.34 8.32 1 9 C0.34 9 -0.32 9 -1 9 C-0.67 7.68 -0.34 6.36 0 5 C-0.66 4.67 -1.32 4.34 -2 4 C-1.34 2.68 -0.68 1.36 0 0 Z " fill="#84807F" transform="translate(134,305)"/>
<path d="M0 0 C1.32 1.32 2.64 2.64 4 4 C4.66 3.67 5.32 3.34 6 3 C6 4.65 6 6.3 6 8 C4.33388095 8.042721 2.66617115 8.04063832 1 8 C0 7 0 7 -0.0625 3.4375 C-0.041875 2.303125 -0.02125 1.16875 0 0 Z " fill="#4B4B49" transform="translate(82,206)"/>
<path d="M0 0 C3.465 1.485 3.465 1.485 7 3 C7 3.66 7 4.32 7 5 C5.02 5.66 3.04 6.32 1 7 C-1 4 -1 4 -0.625 1.8125 C-0.41875 1.214375 -0.2125 0.61625 0 0 Z " fill="#454442" transform="translate(315,162)"/>
<path d="M0 0 C1.32 0.66 2.64 1.32 4 2 C3.1875 3.9375 3.1875 3.9375 2 6 C1.01 6.33 0.02 6.66 -1 7 C-1.66 5.35 -2.32 3.7 -3 2 C-2.01 1.34 -1.02 0.68 0 0 Z " fill="#D1D1CF" transform="translate(150,117)"/>
<path d="M0 0 C0.33 0 0.66 0 1 0 C1 3.96 1 7.92 1 12 C4.3 12 7.6 12 11 12 C11 12.33 11 12.66 11 13 C7.04 13 3.08 13 -1 13 C-1.33 11.35 -1.66 9.7 -2 8 C-1.34 8 -0.68 8 0 8 C0 5.36 0 2.72 0 0 Z " fill="#A6A5A3" transform="translate(203,95)"/>
<path d="M0 0 C2.1519437 3.22791555 2.20086443 4.28400809 2 8 C1.34 8 0.68 8 0 8 C0 6.68 0 5.36 0 4 C-0.99 4 -1.98 4 -3 4 C-3 5.32 -3 6.64 -3 8 C-3.66 8 -4.32 8 -5 8 C-5 5.69 -5 3.38 -5 1 C-4.34 1 -3.68 1 -3 1 C-3 1.66 -3 2.32 -3 3 C-2.01 3 -1.02 3 0 3 C0 2.01 0 1.02 0 0 Z " fill="#93908F" transform="translate(226,337)"/>
<path d="M0 0 C1.65 0.33 3.3 0.66 5 1 C5 1.99 5 2.98 5 4 C4.34 4 3.68 4 3 4 C2.67 4.66 2.34 5.32 2 6 C1.01 6.99 0.02 7.98 -1 9 C-0.67 6.03 -0.34 3.06 0 0 Z " fill="#3B3B39" transform="translate(84,194)"/>
<path d="M0 0 C1.65 0.33 3.3 0.66 5 1 C4.49396008 3.16874252 4.00016187 4.99967627 3 7 C2.34 7 1.68 7 1 7 C-0.0625 4.625 -0.0625 4.625 -1 2 C-0.67 1.34 -0.34 0.68 0 0 Z " fill="#D9D5D4" transform="translate(129,304)"/>
<path d="M0 0 C0.99 0.33 1.98 0.66 3 1 C3 2.98 3 4.96 3 7 C1.35 7 -0.3 7 -2 7 C-2 5.02 -2 3.04 -2 1 C-1.34 0.67 -0.68 0.34 0 0 Z " fill="#353432" transform="translate(330,207)"/>
<path d="M0 0 C0.53625 0.2475 1.0725 0.495 1.625 0.75 C-1.86587093 4.7542343 -4.02451939 6.37671065 -9.375 6.75 C-7.96530805 2.52092415 -4.67392825 -0.49199245 0 0 Z " fill="#424341" transform="translate(292.375,105.25)"/>
<path d="M0 0 C0.33 0 0.66 0 1 0 C1.33 2.97 1.66 5.94 2 9 C0.35 9.66 -1.3 10.32 -3 11 C-4 9 -4 9 -3.0625 5.875 C-2.711875 4.92625 -2.36125 3.9775 -2 3 C-1.34 3 -0.68 3 0 3 C0 2.01 0 1.02 0 0 Z " fill="#D2D1CF" transform="translate(181,87)"/>
<path d="M0 0 C0.99 0.33 1.98 0.66 3 1 C3.33 2.98 3.66 4.96 4 7 C2.68 7.33 1.36 7.66 0 8 C-1.125 2.25 -1.125 2.25 0 0 Z " fill="#DEDCDA" transform="translate(180,95)"/>
<path d="M0 0 C1.33333333 0.66666667 2.66666667 1.33333333 4 2 C4.625 5.0625 4.625 5.0625 5 8 C4.34 8 3.68 8 3 8 C2.34 7.01 1.68 6.02 1 5 C-1.05925139 4.27617533 -1.05925139 4.27617533 -3 4 C-3 3.01 -3 2.02 -3 1 C-2.01 0.67 -1.02 0.34 0 0 Z " fill="#343432" transform="translate(145,105)"/>
<path d="M0 0 C0.33 1.32 0.66 2.64 1 4 C-0.98 4.66 -2.96 5.32 -5 6 C-5 5.34 -5 4.68 -5 4 C-5.66 4 -6.32 4 -7 4 C-7 3.34 -7 2.68 -7 2 C-4.35261084 0.5393715 -3.10551666 0 0 0 Z " fill="#A29E9D" transform="translate(108,267)"/>
<path d="M0 0 C1.98 0 3.96 0 6 0 C5.67 1.98 5.34 3.96 5 6 C4.34 6 3.68 6 3 6 C2.67 6.99 2.34 7.98 2 9 C1.34 6.03 0.68 3.06 0 0 Z " fill="#898785" transform="translate(319,282)"/>
<path d="M0 0 C2.86724686 0.57344937 3.8614515 0.8614515 6 3 C2.535 4.485 2.535 4.485 -1 6 C-1.33 5.01 -1.66 4.02 -2 3 C-1.34 2.01 -0.68 1.02 0 0 Z " fill="#D5D3D1" transform="translate(278,121)"/>
<path d="M0 0 C2.31 0.33 4.62 0.66 7 1 C5.625 2.5 5.625 2.5 4 4 C3.34 4 2.68 4 2 4 C2 4.66 2 5.32 2 6 C1.34 6 0.68 6 0 6 C-1.125 2.25 -1.125 2.25 0 0 Z " fill="#383937" transform="translate(260,111)"/>
<path d="M0 0 C1.67542976 0.28604898 3.34385343 0.61781233 5 1 C4.34 2.32 3.68 3.64 3 5 C2.01 5 1.02 5 0 5 C-0.5625 3.0625 -0.5625 3.0625 -1 1 C-0.67 0.67 -0.34 0.34 0 0 Z " fill="#D4D4D2" transform="translate(143,110)"/>
<path d="M0 0 C0 2.31 0 4.62 0 7 C-0.99 7.33 -1.98 7.66 -3 8 C-3.12375 7.360625 -3.2475 6.72125 -3.375 6.0625 C-3.684375 5.0415625 -3.684375 5.0415625 -4 4 C-4.66 3.67 -5.32 3.34 -6 3 C-2.25 0 -2.25 0 0 0 Z " fill="#878382" transform="translate(116,284)"/>
<path d="M0 0 C0.66 0.99 1.32 1.98 2 3 C2.99 3.33 3.98 3.66 5 4 C5 4.66 5 5.32 5 6 C1.535 7.485 1.535 7.485 -2 9 C-1.7525 8.1028125 -1.7525 8.1028125 -1.5 7.1875 C-0.8885876 4.88655664 -0.8885876 4.88655664 -1 2 C-0.67 1.34 -0.34 0.68 0 0 Z " fill="#CDCBC9" transform="translate(328,141)"/>
<path d="M0 0 C3.465 1.485 3.465 1.485 7 3 C5.68 4.32 4.36 5.64 3 7 C0 2.25 0 2.25 0 0 Z " fill="#C8C8C6" transform="translate(125,129)"/>
<path d="M0 0 C3 1 3 1 4 3 C4.039992 4.99960012 4.04346799 7.00047242 4 9 C2.68 8.67 1.36 8.34 0 8 C0 5.36 0 2.72 0 0 Z " fill="#484947" transform="translate(156,113)"/>
<path d="M0 0 C3.465 1.98 3.465 1.98 7 4 C4 5 4 5 2 5 C1.67 5.99 1.34 6.98 1 8 C0.67 5.36 0.34 2.72 0 0 Z " fill="#858180" transform="translate(287,315)"/>
<path d="M0 0 C0.66 0 1.32 0 2 0 C3.125 4.75 3.125 4.75 2 7 C2.66 7.33 3.32 7.66 4 8 C3.01 8 2.02 8 1 8 C-2 4.66666667 -2 4.66666667 -2 2 C-1.34 2 -0.68 2 0 2 C0 1.34 0 0.68 0 0 Z " fill="#959190" transform="translate(297,306)"/>
<path d="M0 0 C2.31 0 4.62 0 7 0 C7 0.66 7 1.32 7 2 C5.02 2.99 3.04 3.98 1 5 C0.67 3.35 0.34 1.7 0 0 Z " fill="#C9C9C7" transform="translate(332,180)"/>
<path d="M0 0 C0.33 0.66 0.66 1.32 1 2 C1.66 2 2.32 2 3 2 C2 5 2 5 -0.0625 6.1875 C-0.701875 6.455625 -1.34125 6.72375 -2 7 C-2.6875 5.1875 -2.6875 5.1875 -3 3 C-1.5625 1.25 -1.5625 1.25 0 0 Z " fill="#D3D2D0" transform="translate(316,138)"/>
<path d="M0 0 C2.97 0.495 2.97 0.495 6 1 C6 1.66 6 2.32 6 3 C4.02 3.33 2.04 3.66 0 4 C0 2.68 0 1.36 0 0 Z " fill="#C2BFBD" transform="translate(327,269)"/>
<path d="M0 0 C0.99 0.66 1.98 1.32 3 2 C2.67 3.32 2.34 4.64 2 6 C0.68 6.33 -0.64 6.66 -2 7 C-1.125 1.125 -1.125 1.125 0 0 Z " fill="#454643" transform="translate(86,227)"/>
<path d="M0 0 C1.04449911 3.13349732 0.93423645 3.98968256 0 7 C-2.475 6.01 -2.475 6.01 -5 5 C-3.35 3.35 -1.7 1.7 0 0 Z " fill="#CACAC8" transform="translate(289,113)"/>
<path d="M0 0 C0.66 0.33 1.32 0.66 2 1 C1.67 3.64 1.34 6.28 1 9 C0.01 8.67 -0.98 8.34 -2 8 C-2 5.69 -2 3.38 -2 1 C-1.34 0.67 -0.68 0.34 0 0 Z " fill="#D8D4D3" transform="translate(192,334)"/>
<path d="M0 0 C0.66 0.66 1.32 1.32 2 2 C3.98821313 2.39764263 5.98944339 2.73775349 8 3 C8 3.33 8 3.66 8 4 C1.565 4.495 1.565 4.495 -5 5 C-5 4.34 -5 3.68 -5 3 C-2.5 1.375 -2.5 1.375 0 0 Z " fill="#C6C6C4" transform="translate(331,194)"/>
<path d="M0 0 C0.66 0 1.32 0 2 0 C1.34 2.31 0.68 4.62 0 7 C-1.65 7.33 -3.3 7.66 -5 8 C-4.34 7.67 -3.68 7.34 -3 7 C-3.33 6.01 -3.66 5.02 -4 4 C-3.34 4 -2.68 4 -2 4 C-1.34 2.68 -0.68 1.36 0 0 Z " fill="#D3D2D0" transform="translate(96,176)"/>
<path d="M0 0 C1 3 1 3 1 5 C-0.65 5.33 -2.3 5.66 -4 6 C-4 5.34 -4 4.68 -4 4 C-4.66 3.67 -5.32 3.34 -6 3 C-4.02 2.01 -2.04 1.02 0 0 Z " fill="#D7D6D4" transform="translate(331,161)"/>
<path d="M0 0 C0.66 0.99 1.32 1.98 2 3 C0.02 3.33 -1.96 3.66 -4 4 C-4.33 3.34 -4.66 2.68 -5 2 C-5.99 1.67 -6.98 1.34 -8 1 C-5.21136993 -0.39431504 -3.07921132 -0.25660094 0 0 Z " fill="#42413F" transform="translate(150,104)"/>
<path d="M0 0 C0 3 0 3 0 3 Z M-3 3 C-2.34 3.33 -1.68 3.66 -1 4 C-1 5.65 -1 7.3 -1 9 C-1.99 9 -2.98 9 -4 9 C-4.042721 7.33388095 -4.04063832 5.66617115 -4 4 C-3.67 3.67 -3.34 3.34 -3 3 Z " fill="#CECAC9" transform="translate(142,306)"/>
<path d="M0 0 C2.475 0.99 2.475 0.99 5 2 C5 2.99 5 3.98 5 5 C2.03 4.67 -0.94 4.34 -4 4 C-4 3.34 -4 2.68 -4 2 C-2.68 2 -1.36 2 0 2 C0 1.34 0 0.68 0 0 Z " fill="#C8C7C5" transform="translate(322,279)"/>
<path d="M0 0 C1.32 1.65 2.64 3.3 4 5 C3.01 6.98 2.02 8.96 1 11 C0.67 11 0.34 11 0 11 C0 7.37 0 3.74 0 0 Z " fill="#4B4D4A" transform="translate(155,210)"/>
<path d="M0 0 C0.66 0 1.32 0 2 0 C2.33 1.98 2.66 3.96 3 6 C1.35 6.33 -0.3 6.66 -2 7 C-1.34 4.69 -0.68 2.38 0 0 Z " fill="#444341" transform="translate(199,102)"/>
<path d="M0 0 C0.66 0.33 1.32 0.66 2 1 C2 2.32 2 3.64 2 5 C2.66 5.33 3.32 5.66 4 6 C3.01 6.33 2.02 6.66 1 7 C0.67 6.34 0.34 5.68 0 5 C-0.66 5.66 -1.32 6.32 -2 7 C-1.125 1.125 -1.125 1.125 0 0 Z " fill="#7C7877" transform="translate(169,328)"/>
<path d="M0 0 C2.97 0.495 2.97 0.495 6 1 C5.67 1.66 5.34 2.32 5 3 C4.34 2.67 3.68 2.34 3 2 C2.67 2.99 2.34 3.98 2 5 C1.01 4.67 0.02 4.34 -1 4 C-0.67 2.68 -0.34 1.36 0 0 Z " fill="#D7D3D2" transform="translate(118,292)"/>
<path d="M0 0 C-0.33 0.66 -0.66 1.32 -1 2 C-5.47540984 3.26229508 -5.47540984 3.26229508 -8 2 C-6.14210462 -1.71579076 -3.44525918 -1.06921837 0 0 Z " fill="#323431" transform="translate(290,111)"/>
<path d="M0 0 C0.66 0.33 1.32 0.66 2 1 C2 2.65 2 4.3 2 6 C0.68 6 -0.64 6 -2 6 C-1.125 1.125 -1.125 1.125 0 0 Z " fill="#D2D3D0" transform="translate(233,92)"/>
<path d="M0 0 C0.66 0 1.32 0 2 0 C2.185625 0.9590625 2.185625 0.9590625 2.375 1.9375 C2.684375 2.9584375 2.684375 2.9584375 3 4 C3.66 4.33 4.32 4.66 5 5 C4.34 5.66 3.68 6.32 3 7 C2.01 7 1.02 7 0 7 C0 4.69 0 2.38 0 0 Z " fill="#BBB7B6" transform="translate(115,283)"/>
<path d="M0 0 C0.66 1.32 1.32 2.64 2 4 C0.68 5.65 -0.64 7.3 -2 9 C-2.33 7.35 -2.66 5.7 -3 4 C-2.34 4 -1.68 4 -1 4 C-0.67 2.68 -0.34 1.36 0 0 Z " fill="#414340" transform="translate(172,208)"/>
<path d="M0 0 C-0.66 0 -1.32 0 -2 0 C-2.66 1.32 -3.32 2.64 -4 4 C-5.32 3.34 -6.64 2.68 -8 2 C-7 0 -7 0 -5.125 -0.6875 C-3 -1 -3 -1 0 0 Z " fill="#D1D0CE" transform="translate(121,154)"/>
<path d="M0 0 C-1 3 -1 3 -3.0625 4.1875 C-3.701875 4.455625 -4.34125 4.72375 -5 5 C-5.66 3.68 -6.32 2.36 -7 1 C-4.53721199 -0.231394 -2.7204945 -0.07159196 0 0 Z " fill="#40403E" transform="translate(279,99)"/>
<path d="M0 0 C1.32 0 2.64 0 4 0 C4.33 1.32 4.66 2.64 5 4 C3.02 4.99 3.02 4.99 1 6 C1 4.68 1 3.36 1 2 C0.34 1.67 -0.32 1.34 -1 1 C-0.67 0.67 -0.34 0.34 0 0 Z " fill="#B1ADAC" transform="translate(257,334)"/>
<path d="M0 0 C0.66 0.99 1.32 1.98 2 3 C1.67 3.66 1.34 4.32 1 5 C-0.32 5 -1.64 5 -3 5 C-2.625 3.0625 -2.625 3.0625 -2 1 C-1.34 0.67 -0.68 0.34 0 0 Z " fill="#E0DCDB" transform="translate(110,276)"/>
<path d="M0 0 C1.32 0 2.64 0 4 0 C3.34 2.31 2.68 4.62 2 7 C0.4375 5.75 0.4375 5.75 -1 4 C-0.6875 1.8125 -0.6875 1.8125 0 0 Z " fill="#CFCECC" transform="translate(88,190)"/>
<path d="M0 0 C0.66 0.66 1.32 1.32 2 2 C1.67 2.66 1.34 3.32 1 4 C0.34 3.67 -0.32 3.34 -1 3 C-0.67 2.01 -0.34 1.02 0 0 Z M-6 4 C-4.35 4 -2.7 4 -1 4 C-1.66 5.32 -2.32 6.64 -3 8 C-3.99 7.34 -4.98 6.68 -6 6 C-6 5.34 -6 4.68 -6 4 Z " fill="#323331" transform="translate(289,117)"/>
<path d="M0 0 C0.66 0.33 1.32 0.66 2 1 C2 2.65 2 4.3 2 6 C1.01 6.33 0.02 6.66 -1 7 C-1.625 5.1875 -1.625 5.1875 -2 3 C-1.34 2.01 -0.68 1.02 0 0 Z " fill="#323431" transform="translate(230,88)"/>
</svg>
